<svg width="233" height="233" viewBox="0 0 233 233" fill="none" xmlns="http://www.w3.org/2000/svg">
<g clip-path="url(#clip0_110_19)">
<path d="M184.143 144.335C179.373 139.368 173.62 136.713 167.522 136.713C161.473 136.713 155.67 139.319 150.704 144.286L135.164 159.777C133.885 159.088 132.607 158.449 131.377 157.81C129.607 156.924 127.935 156.088 126.509 155.203C111.953 145.958 98.7243 133.91 86.0368 118.321C79.8898 110.551 75.759 104.011 72.7592 97.3719C76.7917 93.6837 80.5291 89.8479 84.1681 86.1597C85.5451 84.7828 86.922 83.3567 88.2989 81.9797C98.6259 71.6527 98.6259 58.2768 88.2989 47.9498L74.8738 34.5247C73.3493 33.0002 71.7757 31.4266 70.3004 29.8529C67.3498 26.804 64.2517 23.6567 61.0553 20.7061C56.2852 15.9852 50.5807 13.4772 44.5812 13.4772C38.5817 13.4772 32.7789 15.9852 27.8613 20.7061C27.8121 20.7553 27.8121 20.7553 27.763 20.8045L11.043 37.672C4.74847 43.9665 1.15861 51.638 0.371787 60.5389C-0.808443 74.8984 3.42071 88.2743 6.66635 97.0277C14.6329 118.518 26.5336 138.434 44.2862 159.777C65.8254 185.496 91.7412 205.806 121.345 220.116C132.656 225.476 147.753 231.82 164.62 232.902C165.653 232.951 166.735 233 167.719 233C179.078 233 188.618 228.918 196.093 220.804C196.142 220.706 196.241 220.657 196.29 220.558C198.847 217.46 201.798 214.657 204.896 211.658C207.01 209.641 209.174 207.527 211.289 205.314C216.157 200.249 218.714 194.347 218.714 188.299C218.714 182.201 216.108 176.349 211.141 171.431L184.143 144.335ZM201.749 196.118C201.699 196.118 201.699 196.167 201.749 196.118C199.831 198.183 197.864 200.052 195.749 202.117C192.553 205.166 189.307 208.363 186.258 211.953C181.291 217.264 175.439 219.772 167.768 219.772C167.03 219.772 166.243 219.772 165.506 219.722C150.9 218.788 137.328 213.084 127.148 208.215C99.3144 194.741 74.8738 175.611 54.564 151.367C37.7949 131.156 26.5827 112.469 19.1571 92.4051C14.5837 80.1602 12.9117 70.62 13.6494 61.6208C14.1411 55.8672 16.3541 51.0971 20.4357 47.0154L37.2048 30.2463C39.6144 27.9842 42.1716 26.7548 44.6796 26.7548C47.7777 26.7548 50.2857 28.6235 51.8593 30.1972C51.9085 30.2463 51.9577 30.2955 52.0068 30.3447C55.0066 33.1477 57.8588 36.0491 60.8586 39.1472C62.383 40.7209 63.9567 42.2945 65.5303 43.9173L78.9554 57.3424C84.1681 62.5551 84.1681 67.3744 78.9554 72.5871C77.5293 74.0132 76.1524 75.4393 74.7263 76.8162C70.5955 81.0454 66.6614 84.9795 62.383 88.8152C62.2847 88.9136 62.1863 88.9628 62.1372 89.0611C57.908 93.2903 58.6948 97.4211 59.58 100.224C59.6292 100.372 59.6783 100.519 59.7275 100.667C63.219 109.125 68.1367 117.092 75.6114 126.583L75.6606 126.632C89.2333 143.352 103.544 156.383 119.329 166.366C121.345 167.645 123.411 168.677 125.378 169.661C127.148 170.546 128.82 171.382 130.246 172.267C130.443 172.366 130.64 172.513 130.836 172.612C132.508 173.448 134.082 173.841 135.705 173.841C139.786 173.841 142.344 171.284 143.18 170.448L159.998 153.63C161.67 151.958 164.325 149.941 167.423 149.941C170.472 149.941 172.98 151.859 174.505 153.531C174.554 153.58 174.554 153.58 174.603 153.63L201.699 180.726C206.764 185.742 206.764 190.905 201.749 196.118Z" fill="#363FC4"/>
<path d="M125.919 55.4246C138.803 57.5883 150.507 63.6862 159.85 73.0297C169.194 82.3732 175.242 94.0771 177.455 106.961C177.996 110.207 180.799 112.469 183.996 112.469C184.389 112.469 184.733 112.42 185.127 112.371C188.766 111.781 191.176 108.338 190.585 104.699C187.93 89.1103 180.553 74.8984 169.292 63.637C158.031 52.3757 143.819 44.9992 128.23 42.3437C124.591 41.7536 121.198 44.1632 120.558 47.7531C119.919 51.343 122.28 54.8345 125.919 55.4246Z" fill="#363FC4"/>
<path d="M232.73 102.781C228.353 77.1113 216.255 53.7526 197.667 35.164C179.078 16.5753 155.72 4.47799 130.05 0.101304C126.46 -0.537988 123.066 1.92082 122.427 5.51069C121.837 9.14973 124.247 12.5429 127.886 13.1822C150.802 17.0671 171.702 27.9351 188.323 44.5074C204.945 61.129 215.764 82.0289 219.649 104.945C220.19 108.191 222.993 110.453 226.189 110.453C226.582 110.453 226.927 110.404 227.32 110.354C230.91 109.813 233.369 106.371 232.73 102.781Z" fill="#363FC4"/>
</g>
<defs>
<clipPath id="clip0_110_19">
<rect width="233" height="233" fill="white"/>
</clipPath>
</defs>
</svg>
